<?xml version="1.0" encoding="iso-8859-1"?>
<!-- Generator: Adobe Illustrator 19.0.0, SVG Export Plug-In . SVG Version: 6.00 Build 0)  -->
<svg version="1.1" id="Capa_1" xmlns="http://www.w3.org/2000/svg" xmlns:xlink="http://www.w3.org/1999/xlink" x="0px" y="0px"
	 viewBox="0 0 512.001 512.001" style="enable-background:new 0 0 512.001 512.001;" xml:space="preserve">
<path style="fill:#EFBC4B;" d="M489.19,305.393v81.98l-408.776-9.165c-23.004-19.192-41.385-44.022-52.903-72.815H489.19z"/>
<g>
	<path style="fill:#C49433;" d="M489.19,305.393H87.329c0,0,0,0,0-0.001H27.512c11.517,28.793,29.899,53.623,52.903,72.815
		l408.776,9.165v-1.341l-348.958-7.824c-17.446-14.555-32.225-32.359-43.376-52.669H489.19L489.19,305.393L489.19,305.393z"/>
	
		<rect x="201.792" y="317.023" transform="matrix(-0.9504 -0.3111 0.3111 -0.9504 300.8173 739.6376)" style="fill:#C49433;" width="15.208" height="57.609"/>
</g>
<path style="fill:#54BBEF;" d="M7.61,386.997c5.657,0.608,11.953,0.963,19.121,0.963c59.706,0,59.706-24.373,119.412-24.373
	c11.761,0,21.2,0.943,29.24,2.464l43.484,14.762c11.558,4.015,25.296,7.148,46.688,7.148c59.716,0,59.716-24.373,119.422-24.373
	s59.706,24.373,119.422,24.373v66.337H7.607L7.61,386.997z"/>
<path style="fill:#A56247;" d="M103.328,437.558l81.017-80.409c8.314-8.314,21.798-8.314,30.111,0
	c4.157,4.157,6.235,9.611,6.235,15.056s-2.078,10.899-6.235,15.056l-56.218,55.802"/>
<path style="fill:#7FDD36;" d="M244.253,292.347l36.598-133.765l-76.625-21.633c-27.81-2.849-54.484,14.589-62.342,42.42
	l-27.181,95.606"/>
<path style="fill:#0387D8;" d="M504.395,496.381c-59.716,0-59.716-24.373-119.422-24.373s-59.706,24.373-119.422,24.373
	c-59.706,0-59.706-24.373-119.412-24.373s-59.706,24.373-119.412,24.373c-7.168,0-13.464-0.355-19.121-0.963v-75.389
	c5.657-0.608,11.963-0.963,19.131-0.963c59.706,0,59.706,24.363,119.422,24.363c59.706,0,59.706-24.363,119.412-24.363
	s59.706,24.363,119.412,24.363s59.706-24.363,119.412-24.363"/>
<path style="fill:#70C129;" d="M144.105,274.976l27.181-95.606c5.706-20.212,21.341-34.932,40.123-40.392l-7.183-2.028
	c-27.81-2.849-54.484,14.589-62.342,42.42l-27.181,95.606l129.55,17.371l1.04-3.803L144.105,274.976z"/>
<circle style="fill:#F9DCA2;" cx="260.075" cy="82.459" r="66.837"/>
<path style="fill:#E5C691;" d="M229.738,82.459c0-30.583,20.549-56.35,48.588-64.294c-5.803-1.644-11.92-2.543-18.249-2.543
	c-36.912,0-66.837,29.924-66.837,66.836c0,36.913,29.924,66.837,66.837,66.837c6.329,0,12.446-0.899,18.249-2.543
	C250.287,138.809,229.738,113.042,229.738,82.459z"/>
<path style="fill:#F9DCA2;" d="M373.819,184.825c15.147,4.278,24.566,19.831,20.561,35.049c-2.058,7.857-7.168,14.062-13.717,17.732
	c-6.397,3.569-14.174,4.725-21.788,2.575l-132.125-37.3l15.573-55.174L373.819,184.825z"/>
<path style="fill:#E5C691;" d="M384.717,221.385c-6.397,3.569-14.174,4.725-21.788,2.575l-131.641-37.163l-4.54,16.085l132.125,37.3
	c7.614,2.149,15.39,0.994,21.788-2.575c6.549-3.67,11.659-9.875,13.717-17.732c0.766-2.911,1.037-5.834,0.875-8.689
	C392.654,215.501,388.996,218.987,384.717,221.385z"/>
<path style="fill:#70C129;" d="M231.286,186.792l-4.542,16.09l-38.09-10.757c2.504-8.881,11.74-14.052,20.622-11.548
	L231.286,186.792z"/>
<path style="fill:#EFBC4B;" d="M22.813,305.389h466.375c8.399,0,15.207-6.808,15.207-15.207l0,0c0-8.399-6.808-15.207-15.207-15.207
	H22.813c-8.399,0-15.207,6.808-15.207,15.207l0,0C7.607,298.581,14.415,305.389,22.813,305.389z"/>
<path style="fill:#C49433;" d="M83.646,290.182c0-8.399,6.808-15.207,15.207-15.207H22.813c-8.399,0-15.207,6.808-15.207,15.207
	c0,8.399,6.808,15.208,15.207,15.208h76.039C90.454,305.389,83.646,298.581,83.646,290.182z"/>
<path style="fill:#D67C05;" d="M317.392,48.046c-5.911,15.147-46.374,23.349-73.16,15.147c-1.612-0.487-3.173-0.882-4.694-1.196
	c-1.257,9.003-4.664,17.317-9.692,24.414c-7.472,10.585-18.554,18.442-31.45,21.788h-0.01c-3.315-7.918-5.14-16.617-5.14-25.742
	c0-36.914,29.929-66.833,66.843-66.833c6.266,0,12.339,0.862,18.087,2.484C294.753,22.751,308.714,33.629,317.392,48.046z"/>
<path style="fill:#AD5F02;" d="M229.735,82.457c0,1.328,0.041,2.646,0.112,3.954c-7.472,10.585-18.554,18.442-31.45,21.788h-0.01
	c-3.315-7.918-5.14-16.617-5.14-25.742c0-36.914,29.929-66.833,66.843-66.833c6.266,0,12.339,0.862,18.087,2.484
	c0.051,0.03,0.101,0.051,0.152,0.061C250.286,26.107,229.735,51.879,229.735,82.457z"/>
<path d="M504.395,411.462c-31.342,0-47.22,6.479-62.576,12.743l-1.972,0.803c-3.89,1.582-5.763,6.017-4.181,9.907
	c1.2,2.953,4.044,4.743,7.047,4.743c0.952,0,1.922-0.18,2.86-0.562l1.991-0.811c14.641-5.975,28.471-11.617,56.831-11.617
	c4.2,0,7.604-3.405,7.604-7.604S508.594,411.462,504.395,411.462z"/>
<path d="M89.316,424.206c-15.356-6.266-31.235-12.744-62.578-12.744c-7.123,0-13.647,0.33-19.945,1.007
	c-4.175,0.449-7.197,4.198-6.747,8.373s4.195,7.198,8.373,6.747c5.753-0.618,11.744-0.92,18.318-0.92
	c28.361,0,42.189,5.643,56.833,11.617c15.358,6.266,31.239,12.745,62.589,12.745c31.344,0,47.222-6.48,62.578-12.745
	c14.642-5.975,28.472-11.618,56.835-11.618c28.362,0,42.19,5.643,56.833,11.618c15.356,6.266,31.235,12.745,62.579,12.745
	c10.679,0,20.132-0.744,28.898-2.276c4.137-0.723,6.904-4.663,6.181-8.799c-0.722-4.138-4.664-6.904-8.799-6.182
	c-7.891,1.379-16.488,2.049-26.28,2.049c-28.362,0-42.19-5.643-56.833-11.618c-15.356-6.266-31.235-12.745-62.579-12.745
	c-31.345,0-47.223,6.48-62.58,12.745c-7.247,2.957-14.297,5.832-23.006,7.983l39.847-39.552c0.869-0.869,1.668-1.788,2.41-2.743
	c9.819,2.933,23.34,5.669,43.31,5.669c31.351,0,47.232-6.483,62.59-12.751c14.642-5.977,28.472-11.622,56.832-11.622
	c28.361,0,42.189,5.645,56.833,11.622c15.358,6.269,31.239,12.751,62.589,12.751c4.2,0,7.604-3.405,7.604-7.604
	s-3.404-7.604-7.604-7.604c-2.658,0-5.189-0.05-7.604-0.145v-68.527c8.849-3.14,15.205-11.59,15.205-21.502
	c0-12.578-10.233-22.812-22.811-22.812H314.988l24.707-24.707l17.113,4.831c3.267,0.922,6.591,1.378,9.897,1.378
	c6.119,0,12.173-1.563,17.673-4.635c8.665-4.86,14.829-12.825,17.355-22.43c3.147-11.962-0.294-24.271-8.078-33.103l17.878-17.878
	c2.97-2.97,2.97-7.784,0-10.753c-2.971-2.97-7.784-2.97-10.754,0l-19.45,19.45c-1.737-0.8-3.554-1.478-5.447-2.014l-89.734-25.332
	c28.224-10.59,48.369-37.84,48.369-69.718c0-41.047-33.394-74.441-74.441-74.441s-74.441,33.394-74.441,74.441
	c0,17.673,6.203,33.918,16.529,46.7c-30.948-1.852-59.09,18.014-67.594,48.131l-25.611,90.081H22.813
	c-12.578,0-22.811,10.233-22.811,22.812c0,12.454,10.034,22.603,22.443,22.802c10.109,23.392,24.916,44.653,43.335,62.307
	c-9.947,2.979-21.812,5.065-39.05,5.065c-6.566,0-12.554-0.301-18.309-0.92c-4.181-0.451-7.923,2.572-8.373,6.747
	s2.572,7.924,6.747,8.373c6.3,0.677,12.821,1.007,19.934,1.007c31.345,0,47.223-6.483,62.58-12.75
	c14.641-5.978,28.471-11.623,56.833-11.623c4.511,0,8.761,0.151,12.816,0.44l-57.666,57.233
	C97.159,427.405,93.266,425.818,89.316,424.206z M447.555,368.733c-15.356-6.269-31.236-12.75-62.58-12.75
	c-31.343,0-47.222,6.482-62.579,12.749c-14.643,5.978-28.476,11.624-56.843,11.624c-17.158,0-28.683-2.094-37.482-4.602
	c0.143-1.169,0.223-2.353,0.223-3.549c0-5.113-1.326-10.019-3.802-14.338l44.873-44.874h212.22v65.87
	C467.303,376.793,457.621,372.841,447.555,368.733z M489.188,282.579c4.192,0,7.603,3.411,7.603,7.604
	c0,4.192-3.411,7.603-7.603,7.603H284.574l15.207-15.207H489.188z M293.481,267.371H258.97l12.063-44.089l51.889,14.648
	L293.481,267.371z M387.026,217.939c-1.468,5.581-5.051,10.211-10.076,13.029c-4.919,2.747-10.607,3.419-16.012,1.892
	l-124.81-35.234l11.443-40.537l124.178,35.056C383.073,195.341,389.926,206.913,387.026,217.939z M260.075,141.692
	c-21.675,0-40.658-11.709-50.983-29.128c17.727-7.487,31.05-22.605,36.228-41.178c13.271,3.348,29.744,3.534,44.838,0.433
	c7.041-1.447,17.586-4.418,25.388-10.12c2.427,6.464,3.763,13.458,3.763,20.76C319.309,115.12,292.737,141.692,260.075,141.692z
	 M260.075,23.226c19.826,0,37.395,9.801,48.152,24.802c-3.379,3.158-10.47,6.705-21.131,8.895
	c-14.004,2.877-29.199,2.502-40.68-1.014c-1.79-0.54-3.591-0.999-5.352-1.363c-2.06-0.424-4.202,0.021-5.921,1.232
	s-2.859,3.081-3.149,5.163c-2.372,16.991-13.436,31.143-28.901,37.65c-1.455-5.133-2.251-10.54-2.251-16.132
	C200.842,49.798,227.414,23.226,260.075,23.226z M149.202,181.435c6.7-23.731,29.208-39.194,53.662-36.968l30.073,8.49
	l-11.443,40.537l-30.779-8.689c-4.04-1.14-8.244,1.21-9.384,5.252c-1.141,4.041,1.21,8.243,5.252,9.383l69.814,19.708
	l-13.193,48.222H124.769L149.202,181.435z M146.143,355.983c-32.499,0-48.373,6.968-64.275,13.442l0,0
	c-17.888-15.724-32.474-35.006-42.717-56.432h52.098c4.199,0,7.604-3.405,7.604-7.604l0,0c0-4.199-3.405-7.604-7.604-7.604h-68.17
	c-3.864,0-7.312-2.77-7.804-6.602c-0.595-4.636,3.017-8.604,7.539-8.604h255.46l-15.207,15.207H126.735
	c-4.199,0-7.604,3.405-7.604,7.604l0,0c0,4.199,3.405,7.604,7.604,7.604h121.123l-34.125,34.125
	c-11.032-6.299-25.355-4.755-34.745,4.633l-6.188,6.141C164.677,356.613,155.914,355.983,146.143,355.983z M189.722,362.525
	c5.334-5.337,14.018-5.339,19.357,0c2.584,2.584,4.008,6.022,4.008,9.679c0,3.657-1.423,7.095-3.987,9.659l-54.163,53.763
	c-2.769,0.128-5.682,0.199-8.777,0.199c-11.29,0-20.273-0.896-27.926-2.349L189.722,362.525z"/>
<path d="M504.395,488.777c-28.367,0-42.199-5.646-56.842-11.623c-15.356-6.269-31.236-12.75-62.58-12.75
	c-31.343,0-47.222,6.482-62.579,12.749c-14.643,5.978-28.476,11.624-56.843,11.624c-28.361,0-42.189-5.645-56.832-11.623
	c-15.356-6.269-31.236-12.75-62.581-12.75s-47.223,6.483-62.58,12.75c-14.641,5.978-28.471,11.623-56.832,11.623
	c-6.564,0-12.553-0.3-18.309-0.92c-4.179-0.448-7.924,2.573-8.373,6.748c-0.449,4.175,2.572,7.924,6.747,8.372
	c6.303,0.677,12.822,1.007,19.934,1.007c31.345,0,47.223-6.483,62.58-12.75c14.641-5.978,28.471-11.623,56.832-11.623
	c28.362,0,42.19,5.645,56.833,11.623c15.356,6.269,31.235,12.75,62.58,12.75c31.351,0,47.232-6.483,62.59-12.751
	c14.642-5.977,28.472-11.622,56.832-11.622c28.361,0,42.189,5.645,56.833,11.622c15.358,6.269,31.239,12.751,62.589,12.751
	c4.2,0,7.604-3.405,7.604-7.604S508.594,488.777,504.395,488.777z"/>
<path d="M270.462,80.049c-4.2,0-7.604,3.405-7.604,7.604v9.437c0,4.199,3.403,7.604,7.604,7.604s7.604-3.405,7.604-7.604v-9.437
	C278.066,83.453,274.663,80.049,270.462,80.049z"/>
<path d="M305.458,74.58c-4.2,0-7.604,3.405-7.604,7.604v9.438c0,4.199,3.404,7.604,7.604,7.604c4.2,0,7.604-3.405,7.604-7.604
	v-9.438C313.062,77.984,309.659,74.58,305.458,74.58z"/>
<g>
</g>
<g>
</g>
<g>
</g>
<g>
</g>
<g>
</g>
<g>
</g>
<g>
</g>
<g>
</g>
<g>
</g>
<g>
</g>
<g>
</g>
<g>
</g>
<g>
</g>
<g>
</g>
<g>
</g>
</svg>
