<?xml version="1.0" standalone="no"?>
  <svg version="1.1"
      baseProfile="full"
     width="889px"
      height="426px"
     
      xmlns="http://www.w3.org/2000/svg"
      >
      <g xmlns="http://www.w3.org/2000/svg" xmlns:xlink="http://www.w3.org/1999/xlink">
      <g transform="rotate(0.8326542166634283 384.5027136505079 177.39844978332508)"><svg xmlns:dc="http://purl.org/dc/elements/1.1/" xmlns:cc="http://creativecommons.org/ns#" xmlns:rdf="http://www.w3.org/1999/02/22-rdf-syntax-ns#" xmlns:svg="http://www.w3.org/2000/svg" xmlns="http://www.w3.org/2000/svg" xmlns:sodipodi="http://sodipodi.sourceforge.net/DTD/sodipodi-0.dtd" xmlns:inkscape="http://www.inkscape.org/namespaces/inkscape" version="1.1" id="l26" x="283.75" y="78.33" viewBox="131.25 131.3000030517578 737.5 737.4000244140625" width="201.50542730101589" height="198.13689956665013" style="enable-background:new 0 0 1000 1000;" xml:space="preserve" class="injected-svg" data-src="/static/media/26.svg" xmlns:xlink="http://www.w3.org/1999/xlink" fill="rgb(255, 255, 255)" opacity="1" preserveAspectRatio="none"><style type="text/css" id="style3">
	#l26 .noFillSVG{fill:none;}
</style><switch id="switch5" transform="translate(-84.35,0)"><g id="g7"><g id="g9"><circle class="noFillSVG" cx="584.40002" cy="500" r="334.79999" id="circle11" style="fill:none"></circle><path class="noFillSVG" d="m 584.4,142.8 c -197,0 -357.2,160.2 -357.2,357.2 0,197 160.2,357.2 357.2,357.2 197,0 357.2,-160.2 357.2,-357.2 0,-197 -160.3,-357.2 -357.2,-357.2 z m 0,696.6 C 397.2,839.4 245,687.1 245,500 245,312.9 397.3,160.6 584.4,160.6 c 187.1,0 339.4,152.2 339.4,339.4 0,187.2 -152.3,339.4 -339.4,339.4 z" id="path13-6632" inkscape:connector-curvature="0" style="fill:none"></path><path d="M 584.4,160.6 C 397.2,160.6 245,312.9 245,500 245,687.1 397.3,839.4 584.4,839.4 771.5,839.4 923.8,687.2 923.8,500 923.8,312.8 771.5,160.6 584.4,160.6 Z m 0,674.2 C 399.8,834.8 249.6,684.6 249.6,500 249.6,315.4 399.8,165.2 584.4,165.2 769,165.2 919.2,315.4 919.2,500 919.2,684.6 769,834.8 584.4,834.8 Z" id="path15-6633" inkscape:connector-curvature="0"></path><path d="M 584.4,131.3 C 381,131.3 215.6,296.7 215.6,500 215.6,703.3 381,868.7 584.4,868.7 787.8,868.7 953.1,703.3 953.1,500 953.1,296.7 787.7,131.3 584.4,131.3 Z m 0,725.9 C 387.4,857.2 227.2,697 227.2,500 c 0,-197 160.2,-357.2 357.2,-357.2 197,0 357.2,160.2 357.2,357.2 0,197 -160.3,357.2 -357.2,357.2 z" id="path17-6634" inkscape:connector-curvature="0"></path></g></g></switch></svg></g><g transform="rotate(0 389.5034951782227 174.94600120544433)"><svg id="1586538149838" opacity="1" fill="rgb(255, 255, 255)" viewBox="1.440000057220459 -50.400001525878906 81.64999389648438 50.400001525878906" width="129.00699035644533" preserveAspectRatio="none" height="79.63200241088867" x="325" y="135.13"><path id="textPath" d="M15.84 0C25.06 0 32.47-7.49 32.47-16.63L32.47-45.36L15.48-45.36L15.48-46.80L32.47-46.80L32.47-50.40L11.88-50.40L11.88-41.76L23.83-41.76L23.83-16.63C23.83-12.24 20.30-8.64 15.84-8.64C12.89-8.64 10.30-10.30 8.93-12.67L5.83-10.87C7.85-7.42 11.59-5.04 15.84-5.04C22.25-5.04 27.43-10.22 27.43-16.63L27.43-41.76L28.87-41.76L28.87-16.63C28.87-9.43 23.04-3.60 15.84-3.60C11.02-3.60 6.84-6.26 4.61-10.15L1.44-8.35C4.32-3.38 9.72 0 15.84 0ZM36.07 0L40.03 0L56.95-35.57L57.74-33.91L41.62 0L45.58 0L50.40-10.22L68.76-10.22L73.51 0L77.47 0L71.06-13.82L52.06-13.82L52.70-15.26L70.34-15.26L56.81-44.42L57.60-46.15L72-15.26L72.65-13.82L79.06 0L83.09 0L64.30-40.18L59.54-50.40ZM54.36-18.86L59.54-29.95L64.73-18.86Z" style="pointer-events: bounding-box; cursor: move;"></path></svg></g>
      </g>
  </svg>